<svg id="Layer_1" data-name="Layer 1" xmlns="http://www.w3.org/2000/svg" width="241.31" height="413.57" viewBox="0 0 241.31 413.57">
  <defs>
    <style>
      .cls-1 {
        fill: #231f20;
      }
    </style>
  </defs>
  <path class="cls-1" d="M-.84,1.82a96.72,96.72,0,0,1-26.65-19.5c-16-16.92-20-36.43-11.52-56.42A87.34,87.34,0,0,1-23-99c-3.19-2-6.46-4.1-9.74-6.38-33.16-23-53.07-50.5-57.59-79.61-3.59-23.14-2.36-35,4-38.43,9.21-5,25.53,9.7,48.11,30,6.56,5.9,13.34,12,20.42,18,9,7.66,17.08,12.68,24,15q.27-5.53.56-11.3c-26-24.09-45.68-43.5-45.94-43.76l2.81-2.85C-24.31-206.43-9.22-191.91,7-176.82q1.14-22.45,2.58-48.34c3.57-64.08,8.81-112.17,15.58-143,6.32-28.76,14.07-43,23.69-43.63,17.55-1.11,37.74,44.82,61.82,140.36,16.86,66.93,29.45,135,30.45,140.45a64.9,64.9,0,0,1,6.6,17.36c3,13.52.59,25.49-7,34.6a7.66,7.66,0,0,1-5.8,2.64l-.57,0c-7.45,0-20.65-6.87-39.46-20.5A26.05,26.05,0,0,1,86.31-82.4c-14.2,12-40.67,9.34-56.65,6.28C17.43-26.59,13.51-13,8.48-13a2.18,2.18,0,0,1-.44,0c-2.69-.4-3.91-3.76-4.68-12.83-.65-7.73-.88-19.33-.68-35.47q.12-10.45.49-23.52c-6.2-2.89-14.11-6.9-22.68-12A83.35,83.35,0,0,0-35.32-72.55c-7.89,18.65-4.3,36.16,10.67,52.05A94.41,94.41,0,0,0,.84-1.81Zm8-84.92q-.25,9.36-.38,17.34c-.56,35.32.92,45.33,1.95,48.1,3.7-5.28,10.75-33.76,17-59.26-5.27-1.14-8.76-2.16-9.28-2.32l-.11,0C16.25-79.31,12.77-80.58,7.12-83.1Zm23.51,3C46-77.17,71-74.69,83.73-85.46a22.57,22.57,0,0,0,7.66-14q-19.31-14.32-45.87-37.45C40.13-118.31,35-97.61,30.63-80Zm65-21.1c17.65,13,31.87,21.19,39.12,20.83a3.81,3.81,0,0,0,2.92-1.21c16.36-19.75,0-47.38-.17-47.66l-.19-.31-.07-.37c-.13-.7-13-71.23-30.47-140.55C76.39-391.13,57.65-408.28,49.13-407.75c-5.15.32-12.8,7.61-20,40.5C22.37-336.68,17.16-288.8,13.6-224.94q-1.54,27.85-2.75,51.67c4.08,3.77,8.23,7.56,12.4,11.35,5.85-4.38,7.45-12.24,7.47-12.33l2.91-15,2.68,39.05c2.36,2.1,4.74,4.2,7.1,6.27,8.16-27.19,15.84-45.19,23.64-47.85a6.71,6.71,0,0,1,6.61,1.28C96-172.78,96.52-167.73,95-151.23a168.57,168.57,0,0,0,.48,39.78A47.84,47.84,0,0,1,95.67-101.15ZM17.65-83c.49.14,3.92,1.12,9.05,2.21,5.44-22,10.56-42.06,15.49-58.94-1.81-1.59-3.65-3.2-5.5-4.85l1.12,16.35-1.76.33A111.32,111.32,0,0,0,8.31-117.73q-.66,16.59-1.07,30.31C13.25-84.7,17.14-83.24,17.65-83Zm-34.29-16.8C-9.22-95.47-2.33-91.93,3.3-89.26q.36-12,.92-26.24A101.75,101.75,0,0,0-16.64-99.85ZM-82.17-220.44a4.63,4.63,0,0,0-2.26.52c-3,1.65-5.87,8.94-1.94,34.3,5.49,35.35,33.39,61.32,55.84,76.88,3.5,2.43,7,4.68,10.36,6.76A106.81,106.81,0,0,1,4.41-120.16q.66-16.62,1.6-36.13c-7.7-2.28-16.53-7.65-26.41-16.06-7.12-6.06-13.92-12.18-20.49-18.1C-58-205.83-74.23-220.44-82.17-220.44ZM46.73-141c15.84,13.79,31.38,26.68,45.11,37a45.57,45.57,0,0,0-.34-7A172.4,172.4,0,0,1,91-151.6c1.39-15.07,1.72-18.66-19.85-35.76a2.73,2.73,0,0,0-2.83-.63C61.78-185.75,54.08-165.71,46.73-141ZM10-155.36q-.84,17.75-1.48,33.07a120.74,120.74,0,0,1,25.09-9.22l-1.16-16.91c-3.22-2.86-6.41-5.73-9.55-8.57a19.86,19.86,0,0,1-2.09.88A21.55,21.55,0,0,1,10-155.36Zm16.3-3.82q2.88,2.6,5.77,5.18L31.28-165A22.3,22.3,0,0,1,26.27-159.18Zm-16.1-.23a18,18,0,0,0,9.26-.46l.19-.07c-3.06-2.79-6.08-5.55-9-8.27C10.45-165.23,10.31-162.29,10.17-159.41Z" transform="translate(92.31 411.76)"/>
  <path class="cls-1" d="M43.53-256.31c8.29,17.48,8.29,40.49,26.69,19.33S97.83-269.2,84-285.76s-14.73-57.07-27.61-35-26.69,33.34-23,42.9A229.8,229.8,0,0,0,43.53-256.31Z" transform="translate(92.31 411.76)"/>
</svg>
