<svg id="Layer_1" data-name="Layer 1" xmlns="http://www.w3.org/2000/svg" width="241.31" height="413.57" viewBox="0 0 241.31 413.57">
  <defs>
    <style>
      .cls-1 {
        fill: #231f20;
      }
    </style>
  </defs>
  <path class="cls-1" d="M-35.4,189.13A96.75,96.75,0,0,1-62,169.63c-16-16.92-20-36.43-11.52-56.42a87.27,87.27,0,0,1,16-24.92c-3.2-2-6.47-4.1-9.75-6.38-33.15-23-53.07-50.49-57.58-79.61-3.6-23.14-2.37-35,4-38.43,9.21-5,25.53,9.7,48.11,30,6.56,5.9,13.34,12,20.42,18,9,7.66,17.08,12.68,24,15,.18-3.69.36-7.46.56-11.3-26-24.09-45.69-43.5-45.95-43.76L-70.92-31C-58.86-19.12-43.78-4.6-27.53,10.49Q-26.39-12-24.95-37.85c3.57-64.08,8.81-112.17,15.58-143,6.32-28.76,14.08-43,23.7-43.63,17.54-1.11,37.74,44.83,61.81,140.36C93-17.14,105.59,50.9,106.6,56.38a65.38,65.38,0,0,1,6.59,17.36c3,13.52.59,25.49-7,34.6a7.64,7.64,0,0,1-5.8,2.64l-.57,0c-7.45,0-20.65-6.87-39.46-20.5a26,26,0,0,1-8.65,14.41c-14.2,12-40.67,9.34-56.65,6.28C-17.13,160.72-21,174.27-26.08,174.27a2.25,2.25,0,0,1-.44,0c-2.68-.4-3.91-3.76-4.67-12.83-.66-7.73-.88-19.33-.69-35.47q.12-10.46.49-23.52c-6.19-2.89-14.11-6.9-22.67-12a83.57,83.57,0,0,0-15.82,24.35c-7.89,18.65-4.3,36.16,10.67,52.05A94.57,94.57,0,0,0-33.72,185.5Zm8-84.92q-.25,9.36-.38,17.34c-.56,35.32.93,45.33,1.95,48.1,3.71-5.27,10.75-33.76,17.05-59.26-5.27-1.14-8.77-2.16-9.28-2.32l-.11,0C-18.3,108-21.79,106.73-27.44,104.21Zm23.51,3.05c15.34,2.88,40.33,5.37,53.11-5.41a22.61,22.61,0,0,0,7.65-14Q37.54,73.56,11,50.44C5.57,69,.41,89.7-3.93,107.26Zm65-21.1C78.76,99.13,93,107.35,100.23,107a3.82,3.82,0,0,0,2.92-1.2c16.37-19.76,0-47.39-.17-47.67l-.19-.31-.06-.37c-.13-.7-13-71.23-30.47-140.55C41.84-203.82,23.09-221,14.57-220.44c-5.14.32-12.8,7.61-20,40.5-6.73,30.57-11.94,78.45-15.49,142.31Q-22.51-9.77-23.7,14c4.07,3.77,8.22,7.56,12.39,11.35C-5.46,21-3.86,13.15-3.84,13.06l2.91-15L1.75,37.12c2.37,2.1,4.74,4.2,7.1,6.27C17,16.2,24.69-1.8,32.49-4.46A6.73,6.73,0,0,1,39.1-3.18C61.44,14.53,62,19.58,60.45,36.08a168.42,168.42,0,0,0,.47,39.78A47.21,47.21,0,0,1,61.11,86.16Zm-78,18.1c.48.14,3.91,1.12,9,2.21C-2.42,84.5,2.7,64.41,7.63,47.53l-5.5-4.85L3.25,59l-1.76.33A111.62,111.62,0,0,0-26.25,69.58q-.66,16.61-1.06,30.31C-21.31,102.61-17.41,104.07-16.9,104.26Zm-34.3-16.8c7.43,4.39,14.31,7.92,19.94,10.59q.36-12,.92-26.24A102,102,0,0,0-51.2,87.46ZM-116.73-33.13a4.56,4.56,0,0,0-2.25.52c-3.06,1.65-5.88,9-1.94,34.3C-115.44,37-87.53,63-65.09,78.57c3.5,2.43,7,4.68,10.37,6.77A106.32,106.32,0,0,1-30.15,67.15q.67-16.62,1.61-36.13c-7.7-2.28-16.53-7.65-26.41-16.06C-62.07,8.9-68.87,2.78-75.45-3.14-92.54-18.52-108.78-33.13-116.73-33.13ZM12.18,46.3C28,60.1,43.55,73,57.28,83.31a45.51,45.51,0,0,0-.33-7,172.56,172.56,0,0,1-.49-40.63C57.85,20.64,58.18,17.05,36.62,0a2.73,2.73,0,0,0-2.83-.63C27.22,1.56,19.53,21.6,12.18,46.3ZM-24.58,32Q-25.43,49.7-26.06,65A120.72,120.72,0,0,1-1,55.8L-2.14,38.89c-3.21-2.86-6.4-5.73-9.54-8.57a18.71,18.71,0,0,1-2.09.88A21.56,21.56,0,0,1-24.58,32Zm16.29-3.82q2.88,2.6,5.77,5.18l-.76-11A22.12,22.12,0,0,1-8.29,28.13Zm-16.1-.23a18,18,0,0,0,9.26-.46l.2-.07q-4.61-4.19-9-8.26C-24.1,22.08-24.25,25-24.39,27.9Z" transform="translate(126.87 224.45)"/>
  <path class="cls-1" d="M9-69c8.28,17.48,8.28,40.49,26.69,19.33s27.61-32.22,13.8-48.78-14.72-57.07-27.61-35-26.69,33.34-23,42.9A228.69,228.69,0,0,0,9-69Z" transform="translate(126.87 224.45)"/>
</svg>
